{
	"asset":{
		"generator":"Khronos glTF Blender I/O v3.6.28",
		"version":"2.0"
	},
	"extensionsUsed":[
		"KHR_materials_specular",
		"KHR_materials_ior"
	],
	"scene":0,
	"scenes":[
		{
			"name":"Scene",
			"nodes":[
				0,
				1,
				2,
				3,
				4,
				5,
				6,
				7,
				8,
				9,
				10,
				11,
				12,
				13,
				14,
				15,
				16,
				17,
				18,
				19,
				20,
				21,
				22,
				23,
				24,
				25,
				26,
				27
			]
		}
	],
	"nodes":[
		{
			"mesh":0,
			"name":"mouse",
			"rotation":[
				0.5171284079551697,
				0.46533873677253723,
				-0.476662278175354,
				0.5374301075935364
			],
			"scale":[
				0.00045410191523842514,
				0.0004541019443422556,
				0.0004541020025499165
			]
		},
		{
			"mesh":1,
			"name":"tierra de mata",
			"rotation":[
				0.7071068286895752,
				0,
				0,
				0.7071068286895752
			],
			"scale":[
				0.0012612651335075498,
				0.0012612651335075498,
				0.0012612651335075498
			]
		},
		{
			"mesh":2,
			"name":"maceta",
			"rotation":[
				0.7071068286895752,
				0,
				0,
				0.7071068286895752
			],
			"scale":[
				0.0012612651335075498,
				0.0012612651335075498,
				0.0012612651335075498
			]
		},
		{
			"mesh":3,
			"name":"base de matita",
			"rotation":[
				0.7071068286895752,
				0,
				0,
				0.7071068286895752
			],
			"scale":[
				0.0012612651335075498,
				0.0012612651335075498,
				0.0012612651335075498
			]
		},
		{
			"mesh":4,
			"name":"matita petalos",
			"rotation":[
				0.7071068286895752,
				0,
				0,
				0.7071068286895752
			],
			"scale":[
				0.0012612651335075498,
				0.0012612651335075498,
				0.0012612651335075498
			]
		},
		{
			"mesh":5,
			"name":"uploads_files_4599737_chair+obj",
			"rotation":[
				-0.012521272525191307,
				0.7073770761489868,
				-0.7066887021064758,
				0.0072127762250602245
			],
			"scale":[
				0.010017286986112595,
				0.01001728605479002,
				0.010017286986112595
			]
		},
		{
			"mesh":6,
			"name":"1",
			"rotation":[
				0.4576973021030426,
				0.5420253276824951,
				-0.441485196352005,
				0.5493747591972351
			],
			"scale":[
				0.04081625118851662,
				0.04081625118851662,
				0.04081625118851662
			]
		},
		{
			"mesh":7,
			"name":"A",
			"rotation":[
				0.4576973021030426,
				0.5420253276824951,
				-0.441485196352005,
				0.5493747591972351
			],
			"scale":[
				0.04081625118851662,
				0.04081625118851662,
				0.04081625118851662
			]
		},
		{
			"mesh":8,
			"name":"cuerpo de teclado",
			"rotation":[
				0.4990043640136719,
				0.5040311217308044,
				-0.5033788084983826,
				0.49351513385772705
			],
			"scale":[
				0.04081625118851662,
				0.04081625118851662,
				0.04081625118851662
			]
		},
		{
			"mesh":9,
			"name":"download_",
			"rotation":[
				0.4576973021030426,
				0.5420253276824951,
				-0.441485196352005,
				0.5493747591972351
			],
			"scale":[
				0.04081625118851662,
				0.04081625118851662,
				0.04081625118851662
			]
		},
		{
			"mesh":10,
			"name":"Teclado",
			"rotation":[
				0.5037515163421631,
				0.49899065494537354,
				-0.5106629729270935,
				0.48627781867980957
			],
			"scale":[
				0.04081625118851662,
				0.04081624746322632,
				0.04081625118851662
			]
		},
		{
			"mesh":11,
			"name":"Keys",
			"rotation":[
				0.49773985147476196,
				0.5028281211853027,
				-0.502717912197113,
				0.49668267369270325
			],
			"scale":[
				0.04081625118851662,
				0.040816254913806915,
				0.04081625118851662
			]
		},
		{
			"mesh":12,
			"name":"wifi",
			"rotation":[
				0.4576973021030426,
				0.5420253276824951,
				-0.441485196352005,
				0.5493747591972351
			],
			"scale":[
				0.04081625118851662,
				0.04081625118851662,
				0.04081625118851662
			]
		},
		{
			"mesh":13,
			"name":"Ventana",
			"rotation":[
				-0.3970887064933777,
				0.5369285941123962,
				0.37705156207084656,
				0.64176344871521
			],
			"scale":[
				0.31185033917427063,
				0.3118503987789154,
				0.31185030937194824
			]
		},
		{
			"mesh":14,
			"name":"Pared",
			"rotation":[
				-0.7172955274581909,
				0.0033165994100272655,
				-0.0013488783733919263,
				0.696759819984436
			],
			"scale":[
				0.3574020564556122,
				0.3574020266532898,
				0.3574019968509674
			]
		},
		{
			"mesh":15,
			"name":"Piso",
			"rotation":[
				0.0007026215316727757,
				0.017128683626651764,
				0.007165869697928429,
				0.9998273849487305
			],
			"scale":[
				0.31806084513664246,
				0.31806087493896484,
				0.31806087493896484
			]
		},
		{
			"mesh":16,
			"name":"Plano.006",
			"scale":[
				0.051331426948308945,
				0.07253852486610413,
				0.09951034188270569
			]
		},
		{
			"mesh":17,
			"name":"Mesa",
			"scale":[
				0.08176711946725845,
				0.11554843187332153,
				0.15851251780986786
			]
		},
		{
			"mesh":18,
			"name":"Pata de mesa 1",
			"rotation":[
				0.7187693119049072,
				-0.007261136546730995,
				-0.0014218620490282774,
				0.6952093243598938
			],
			"scale":[
				0.09406813979148865,
				0.41216278076171875,
				0.04057103395462036
			]
		},
		{
			"mesh":19,
			"name":"pata  de mesa 1 ",
			"rotation":[
				0.7187693119049072,
				-0.007261136546730995,
				-0.0014218620490282774,
				0.6952093243598938
			],
			"scale":[
				0.09406813979148865,
				0.41216278076171875,
				0.04057103395462036
			]
		},
		{
			"mesh":20,
			"name":"Repisa 1",
			"scale":[
				0.11093971133232117,
				0.11093971133232117,
				0.06499915570020676
			]
		},
		{
			"mesh":21,
			"name":"Repisa 2",
			"scale":[
				0.11093971133232117,
				0.11093971133232117,
				0.06550654023885727
			]
		},
		{
			"mesh":22,
			"name":"base para repisa 2",
			"rotation":[
				-0.0005653061671182513,
				-0.0009085306082852185,
				-0.004236766602844,
				0.9999904632568359
			],
			"scale":[
				-0.010943630710244179,
				-0.03562988340854645,
				-0.013952553272247314
			]
		},
		{
			"mesh":23,
			"name":"base para repisa 1",
			"rotation":[
				-0.0005653061671182513,
				-0.0009085306082852185,
				-0.004236766602844,
				0.9999904632568359
			],
			"scale":[
				-0.010943630710244179,
				-0.03562988340854645,
				-0.013952553272247314
			]
		},
		{
			"mesh":24,
			"name":"monitor",
			"rotation":[
				-0.4979517161846161,
				-0.506233274936676,
				-0.5028296709060669,
				0.4928836524486542
			],
			"scale":[
				0.07877715677022934,
				0.9573894739151001,
				0.04556742310523987
			]
		},
		{
			"mesh":25,
			"name":"Gabinete",
			"scale":[
				0.041741013526916504,
				0.041741013526916504,
				0.03163996338844299
			]
		},
		{
			"mesh":26,
			"name":"base de cilindro de monitor",
			"scale":[
				-0.006067613139748573,
				-0.018936263397336006,
				-0.005814586766064167
			]
		},
		{
			"mesh":27,
			"name":"base de monitor",
			"scale":[
				0.04186703637242317,
				0.04186703637242317,
				0.04186703637242317
			]
		}
	],
	"materials":[
		{
			"doubleSided":true,
			"extensions":{
				"KHR_materials_specular":{
					"specularColorFactor":[
						0,
						0,
						0
					]
				},
				"KHR_materials_ior":{
					"ior":1.4500000476837158
				}
			},
			"name":"Hard Shiny Plastic Grey",
			"pbrMetallicRoughness":{
				"baseColorFactor":[
					0.7692492008209229,
					0.8000000715255737,
					0.06086635962128639,
					1
				],
				"metallicFactor":0
			}
		},
		{
			"doubleSided":true,
			"extensions":{
				"KHR_materials_specular":{
					"specularColorFactor":[
						0,
						0,
						0
					]
				},
				"KHR_materials_ior":{
					"ior":1.4500000476837158
				}
			},
			"name":"Rubber",
			"pbrMetallicRoughness":{
				"baseColorFactor":[
					0.800000011920929,
					0.800000011920929,
					0.800000011920929,
					1
				],
				"metallicFactor":0
			}
		},
		{
			"doubleSided":true,
			"extensions":{
				"KHR_materials_specular":{
					"specularColorFactor":[
						0,
						0,
						0
					]
				},
				"KHR_materials_ior":{
					"ior":1.4500000476837158
				}
			},
			"name":"Hard Shiny Plastic Black",
			"pbrMetallicRoughness":{
				"baseColorFactor":[
					0.800000011920929,
					0.800000011920929,
					0.800000011920929,
					1
				],
				"metallicFactor":0
			}
		},
		{
			"doubleSided":true,
			"extensions":{
				"KHR_materials_specular":{
					"specularColorFactor":[
						0,
						0,
						0
					]
				},
				"KHR_materials_ior":{
					"ior":1.4500000476837158
				}
			},
			"name":"wire_115115115",
			"pbrMetallicRoughness":{
				"baseColorFactor":[
					0.0973149836063385,
					0.1589592546224594,
					0.11611075699329376,
					1
				],
				"metallicFactor":0
			}
		},
		{
			"doubleSided":true,
			"extensions":{
				"KHR_materials_specular":{
					"specularColorFactor":[
						0,
						0,
						0
					]
				},
				"KHR_materials_ior":{
					"ior":1.4500000476837158
				}
			},
			"name":"standardSurface2SG",
			"pbrMetallicRoughness":{
				"baseColorFactor":[
					0.08949995040893555,
					0.09042160212993622,
					0.21585975587368011,
					1
				],
				"metallicFactor":0
			}
		},
		{
			"doubleSided":true,
			"extensions":{
				"KHR_materials_specular":{
					"specularColorFactor":[
						0,
						0,
						0
					]
				},
				"KHR_materials_ior":{
					"ior":1.4500000476837158
				}
			},
			"name":"light_on",
			"pbrMetallicRoughness":{
				"baseColorFactor":[
					0.800000011920929,
					0.800000011920929,
					0.800000011920929,
					1
				],
				"metallicFactor":0
			}
		},
		{
			"doubleSided":true,
			"extensions":{
				"KHR_materials_specular":{
					"specularColorFactor":[
						0,
						0,
						0
					]
				},
				"KHR_materials_ior":{
					"ior":1.4500000476837158
				}
			},
			"name":"light_off",
			"pbrMetallicRoughness":{
				"baseColorFactor":[
					0.800000011920929,
					0.800000011920929,
					0.800000011920929,
					1
				],
				"metallicFactor":0
			}
		},
		{
			"doubleSided":true,
			"extensions":{
				"KHR_materials_specular":{
					"specularColorFactor":[
						0,
						0,
						0
					]
				},
				"KHR_materials_ior":{
					"ior":1.4500000476837158
				}
			},
			"name":"border",
			"pbrMetallicRoughness":{
				"baseColorFactor":[
					0.14240022003650665,
					0.14240022003650665,
					0.14240022003650665,
					1
				],
				"metallicFactor":0
			}
		},
		{
			"doubleSided":true,
			"extensions":{
				"KHR_materials_specular":{
					"specularColorFactor":[
						0,
						0,
						0
					]
				},
				"KHR_materials_ior":{
					"ior":1.4500000476837158
				}
			},
			"name":"body",
			"pbrMetallicRoughness":{
				"baseColorFactor":[
					0.13286343216896057,
					0.13286343216896057,
					0.13286343216896057,
					1
				],
				"metallicFactor":0
			}
		},
		{
			"doubleSided":true,
			"extensions":{
				"KHR_materials_specular":{
					"specularColorFactor":[
						0,
						0,
						0
					]
				},
				"KHR_materials_ior":{
					"ior":1.4500000476837158
				}
			},
			"name":"keys",
			"pbrMetallicRoughness":{
				"baseColorFactor":[
					0.10247356444597244,
					0.10247356444597244,
					0.10247356444597244,
					1
				],
				"metallicFactor":0
			}
		},
		{
			"doubleSided":true,
			"name":"Material.002",
			"pbrMetallicRoughness":{
				"baseColorFactor":[
					0.17484647035598755,
					0.689246416091919,
					0.8000000715255737,
					1
				],
				"metallicFactor":0,
				"roughnessFactor":0.5
			}
		},
		{
			"doubleSided":true,
			"name":"Material.001",
			"pbrMetallicRoughness":{
				"baseColorFactor":[
					0.12223514914512634,
					0.8000000715255737,
					0.7107647657394409,
					1
				],
				"metallicFactor":0,
				"roughnessFactor":0.5
			}
		},
		{
			"doubleSided":true,
			"name":"Material.007",
			"pbrMetallicRoughness":{
				"baseColorFactor":[
					0.8000000715255737,
					0.1642613559961319,
					0.049059703946113586,
					1
				],
				"metallicFactor":0,
				"roughnessFactor":0.5
			}
		},
		{
			"doubleSided":true,
			"name":"Material.003",
			"pbrMetallicRoughness":{
				"baseColorFactor":[
					0.13013647496700287,
					0.05612844601273537,
					0.015208530239760876,
					1
				],
				"metallicFactor":0,
				"roughnessFactor":0.5
			}
		},
		{
			"doubleSided":true,
			"name":"Material.004",
			"pbrMetallicRoughness":{
				"baseColorFactor":[
					0.13013647496700287,
					0.05612844601273537,
					0.015208530239760876,
					1
				],
				"metallicFactor":0,
				"roughnessFactor":0.5
			}
		},
		{
			"doubleSided":true,
			"name":"Material.005",
			"pbrMetallicRoughness":{
				"baseColorFactor":[
					0.0016924099763855338,
					0.0016924099763855338,
					0.0016924099763855338,
					1
				],
				"metallicFactor":0,
				"roughnessFactor":0.5
			}
		},
		{
			"doubleSided":true,
			"name":"Material.006",
			"pbrMetallicRoughness":{
				"baseColorFactor":[
					0,
					0,
					0,
					1
				],
				"metallicFactor":0,
				"roughnessFactor":0.5
			}
		},
		{
			"doubleSided":true,
			"name":"Material.011",
			"pbrMetallicRoughness":{
				"baseColorFactor":[
					0.18071354925632477,
					0.8000000715255737,
					0,
					1
				],
				"metallicFactor":0,
				"roughnessFactor":0.5
			}
		},
		{
			"doubleSided":true,
			"name":"Material.014",
			"pbrMetallicRoughness":{
				"baseColorFactor":[
					0.1638023555278778,
					0.8000000715255737,
					0.028651626780629158,
					1
				],
				"metallicFactor":0,
				"roughnessFactor":0.5
			}
		},
		{
			"doubleSided":true,
			"name":"Material.012",
			"pbrMetallicRoughness":{
				"baseColorFactor":[
					0.07323549687862396,
					0.07323549687862396,
					0.07323549687862396,
					1
				],
				"metallicFactor":0,
				"roughnessFactor":0.5
			}
		},
		{
			"doubleSided":true,
			"name":"Material.013",
			"pbrMetallicRoughness":{
				"baseColorFactor":[
					0.1065349206328392,
					0.1065349206328392,
					0.1065349206328392,
					1
				],
				"metallicFactor":0,
				"roughnessFactor":0.5
			}
		},
		{
			"doubleSided":true,
			"name":"Material",
			"pbrMetallicRoughness":{
				"baseColorFactor":[
					0.11927556246519089,
					0.11927556246519089,
					0.11927556246519089,
					1
				],
				"metallicFactor":0,
				"roughnessFactor":0.5
			}
		},
		{
			"doubleSided":true,
			"name":"Material.010",
			"pbrMetallicRoughness":{
				"baseColorFactor":[
					0.035217709839344025,
					0.02831883355975151,
					0.029854441061615944,
					1
				],
				"metallicFactor":0,
				"roughnessFactor":0.5
			}
		},
		{
			"doubleSided":true,
			"name":"Material.008",
			"pbrMetallicRoughness":{
				"baseColorFactor":[
					0.16794851422309875,
					0.16794851422309875,
					0.16794851422309875,
					1
				],
				"metallicFactor":0,
				"roughnessFactor":0.5
			}
		},
		{
			"doubleSided":true,
			"name":"Material.009",
			"pbrMetallicRoughness":{
				"baseColorFactor":[
					0.14731375873088837,
					0.14731375873088837,
					0.14731375873088837,
					1
				],
				"metallicFactor":0,
				"roughnessFactor":0.5
			}
		}
	],
	"meshes":[
		{
			"name":"uploads_files_2782522_mouse",
			"primitives":[
				{
					"attributes":{
						"POSITION":0,
						"NORMAL":1,
						"TEXCOORD_0":2
					},
					"indices":3,
					"material":0
				},
				{
					"attributes":{
						"POSITION":4,
						"NORMAL":5,
						"TEXCOORD_0":6
					},
					"indices":7,
					"material":1
				},
				{
					"attributes":{
						"POSITION":8,
						"NORMAL":9,
						"TEXCOORD_0":10
					},
					"indices":11,
					"material":2
				}
			]
		},
		{
			"name":"vase_01_corona_001",
			"primitives":[
				{
					"attributes":{
						"POSITION":12,
						"NORMAL":13,
						"TEXCOORD_0":14
					},
					"indices":15,
					"material":3
				}
			]
		},
		{
			"name":"vase_01_corona_002",
			"primitives":[
				{
					"attributes":{
						"POSITION":16,
						"NORMAL":17,
						"TEXCOORD_0":18
					},
					"indices":19,
					"material":3
				}
			]
		},
		{
			"name":"vase_01_corona_003",
			"primitives":[
				{
					"attributes":{
						"POSITION":20,
						"NORMAL":21,
						"TEXCOORD_0":22
					},
					"indices":23,
					"material":3
				}
			]
		},
		{
			"name":"vase_01_corona_004",
			"primitives":[
				{
					"attributes":{
						"POSITION":24,
						"NORMAL":25,
						"TEXCOORD_0":26
					},
					"indices":27,
					"material":3
				}
			]
		},
		{
			"name":"uploads_files_4599737_chair+obj",
			"primitives":[
				{
					"attributes":{
						"POSITION":28,
						"NORMAL":29,
						"TEXCOORD_0":30
					},
					"indices":31,
					"material":4
				}
			]
		},
		{
			"name":"1",
			"primitives":[
				{
					"attributes":{
						"POSITION":32,
						"NORMAL":33,
						"TEXCOORD_0":34
					},
					"indices":35,
					"material":5
				}
			]
		},
		{
			"name":"A",
			"primitives":[
				{
					"attributes":{
						"POSITION":36,
						"NORMAL":37,
						"TEXCOORD_0":38
					},
					"indices":39,
					"material":6
				}
			]
		},
		{
			"name":"body_border",
			"primitives":[
				{
					"attributes":{
						"POSITION":40,
						"NORMAL":41,
						"TEXCOORD_0":42
					},
					"indices":43,
					"material":7
				}
			]
		},
		{
			"name":"download_",
			"primitives":[
				{
					"attributes":{
						"POSITION":44,
						"NORMAL":45,
						"TEXCOORD_0":46
					},
					"indices":47,
					"material":6
				}
			]
		},
		{
			"name":"Keyboard",
			"primitives":[
				{
					"attributes":{
						"POSITION":48,
						"NORMAL":49,
						"TEXCOORD_0":50
					},
					"indices":51,
					"material":8
				}
			]
		},
		{
			"name":"Keys",
			"primitives":[
				{
					"attributes":{
						"POSITION":52,
						"NORMAL":53,
						"TEXCOORD_0":54
					},
					"indices":55,
					"material":9
				}
			]
		},
		{
			"name":"wifi",
			"primitives":[
				{
					"attributes":{
						"POSITION":56,
						"NORMAL":57,
						"TEXCOORD_0":58
					},
					"indices":59,
					"material":5
				}
			]
		},
		{
			"name":"Plano.002",
			"primitives":[
				{
					"attributes":{
						"POSITION":60,
						"NORMAL":61,
						"TEXCOORD_0":62
					},
					"indices":63,
					"material":10
				}
			]
		},
		{
			"name":"Plano.004",
			"primitives":[
				{
					"attributes":{
						"POSITION":64,
						"NORMAL":65,
						"TEXCOORD_0":66
					},
					"indices":67,
					"material":11
				}
			]
		},
		{
			"name":"Plano.001",
			"primitives":[
				{
					"attributes":{
						"POSITION":68,
						"NORMAL":69,
						"TEXCOORD_0":70
					},
					"indices":71,
					"material":12
				}
			]
		},
		{
			"name":"Plano.007",
			"primitives":[
				{
					"attributes":{
						"POSITION":72,
						"NORMAL":73,
						"TEXCOORD_0":74
					},
					"indices":75,
					"material":13
				}
			]
		},
		{
			"name":"Plano.008",
			"primitives":[
				{
					"attributes":{
						"POSITION":76,
						"NORMAL":77,
						"TEXCOORD_0":78
					},
					"indices":79,
					"material":14
				}
			]
		},
		{
			"name":"Plano.009",
			"primitives":[
				{
					"attributes":{
						"POSITION":80,
						"NORMAL":81,
						"TEXCOORD_0":82
					},
					"indices":83,
					"material":15
				}
			]
		},
		{
			"name":"Plano.011",
			"primitives":[
				{
					"attributes":{
						"POSITION":84,
						"NORMAL":85,
						"TEXCOORD_0":86
					},
					"indices":87,
					"material":16
				}
			]
		},
		{
			"name":"Plano.003",
			"primitives":[
				{
					"attributes":{
						"POSITION":88,
						"NORMAL":89,
						"TEXCOORD_0":90
					},
					"indices":91,
					"material":17
				}
			]
		},
		{
			"name":"Plano.006",
			"primitives":[
				{
					"attributes":{
						"POSITION":92,
						"NORMAL":93,
						"TEXCOORD_0":94
					},
					"indices":91,
					"material":18
				}
			]
		},
		{
			"name":"Cilindro",
			"primitives":[
				{
					"attributes":{
						"POSITION":95,
						"NORMAL":96,
						"TEXCOORD_0":97
					},
					"indices":98,
					"material":19
				}
			]
		},
		{
			"name":"Cilindro.001",
			"primitives":[
				{
					"attributes":{
						"POSITION":99,
						"NORMAL":100,
						"TEXCOORD_0":101
					},
					"indices":102,
					"material":20
				}
			]
		},
		{
			"name":"Plano.010",
			"primitives":[
				{
					"attributes":{
						"POSITION":103,
						"NORMAL":104,
						"TEXCOORD_0":105
					},
					"indices":106,
					"material":21
				}
			]
		},
		{
			"name":"Cubo",
			"primitives":[
				{
					"attributes":{
						"POSITION":107,
						"NORMAL":108,
						"TEXCOORD_0":109
					},
					"indices":110,
					"material":22
				}
			]
		},
		{
			"name":"Cilindro.002",
			"primitives":[
				{
					"attributes":{
						"POSITION":111,
						"NORMAL":112,
						"TEXCOORD_0":113
					},
					"indices":98,
					"material":23
				}
			]
		},
		{
			"name":"C\u00edrculo.001",
			"primitives":[
				{
					"attributes":{
						"POSITION":114,
						"NORMAL":115,
						"TEXCOORD_0":116
					},
					"indices":117,
					"material":24
				}
			]
		}
	],
	"accessors":[
		{
			"bufferView":0,
			"componentType":5126,
			"count":48759,
			"max":[
				399.4814147949219,
				116.68204498291016,
				-392.158203125
			],
			"min":[
				319.4814147949219,
				-23.05335235595703,
				-423.85009765625
			],
			"type":"VEC3"
		},
		{
			"bufferView":1,
			"componentType":5126,
			"count":48759,
			"type":"VEC3"
		},
		{
			"bufferView":2,
			"componentType":5126,
			"count":48759,
			"type":"VEC2"
		},
		{
			"bufferView":3,
			"componentType":5123,
			"count":246042,
			"type":"SCALAR"
		},
		{
			"bufferView":4,
			"componentType":5126,
			"count":11778,
			"max":[
				363.2314147949219,
				9.38554573059082,
				-393.08929443359375
			],
			"min":[
				355.7314147949219,
				-14.515655517578125,
				-416.99090576171875
			],
			"type":"VEC3"
		},
		{
			"bufferView":5,
			"componentType":5126,
			"count":11778,
			"type":"VEC3"
		},
		{
			"bufferView":6,
			"componentType":5126,
			"count":11778,
			"type":"VEC2"
		},
		{
			"bufferView":7,
			"componentType":5123,
			"count":43584,
			"type":"SCALAR"
		},
		{
			"bufferView":8,
			"componentType":5126,
			"count":4952,
			"max":[
				392.0450134277344,
				108.36714172363281,
				-391.5581970214844
			],
			"min":[
				326.9178161621094,
				-15.051353454589844,
				-392.158203125
			],
			"type":"VEC3"
		},
		{
			"bufferView":9,
			"componentType":5126,
			"count":4952,
			"type":"VEC3"
		},
		{
			"bufferView":10,
			"componentType":5126,
			"count":4952,
			"type":"VEC2"
		},
		{
			"bufferView":11,
			"componentType":5123,
			"count":21870,
			"type":"SCALAR"
		},
		{
			"bufferView":12,
			"componentType":5126,
			"count":612,
			"max":[
				200.6393280029297,
				-279.5636291503906,
				-486.2026062011719
			],
			"min":[
				183.8377227783203,
				-296.3714294433594,
				-487.0382080078125
			],
			"type":"VEC3"
		},
		{
			"bufferView":13,
			"componentType":5126,
			"count":612,
			"type":"VEC3"
		},
		{
			"bufferView":14,
			"componentType":5126,
			"count":612,
			"type":"VEC2"
		},
		{
			"bufferView":15,
			"componentType":5123,
			"count":3525,
			"type":"SCALAR"
		},
		{
			"bufferView":16,
			"componentType":5126,
			"count":17256,
			"max":[
				201.59124755859375,
				-278.67803955078125,
				-467.29913330078125
			],
			"min":[
				182.78964233398438,
				-297.4549255371094,
				-488.305419921875
			],
			"type":"VEC3"
		},
		{
			"bufferView":17,
			"componentType":5126,
			"count":17256,
			"type":"VEC3"
		},
		{
			"bufferView":18,
			"componentType":5126,
			"count":17256,
			"type":"VEC2"
		},
		{
			"bufferView":19,
			"componentType":5123,
			"count":100788,
			"type":"SCALAR"
		},
		{
			"bufferView":20,
			"componentType":5126,
			"count":2516,
			"max":[
				202.71044921875,
				-277.4609375,
				-452.6494445800781
			],
			"min":[
				181.5301513671875,
				-298.6283264160156,
				-475.5029296875
			],
			"type":"VEC3"
		},
		{
			"bufferView":21,
			"componentType":5126,
			"count":2516,
			"type":"VEC3"
		},
		{
			"bufferView":22,
			"componentType":5126,
			"count":2516,
			"type":"VEC2"
		},
		{
			"bufferView":23,
			"componentType":5123,
			"count":10980,
			"type":"SCALAR"
		},
		{
			"bufferView":24,
			"componentType":5126,
			"count":5434,
			"max":[
				223.821533203125,
				-243.8707275390625,
				-485.90301513671875
			],
			"min":[
				157.0635223388672,
				-326.2037353515625,
				-581.7698364257812
			],
			"type":"VEC3"
		},
		{
			"bufferView":25,
			"componentType":5126,
			"count":5434,
			"type":"VEC3"
		},
		{
			"bufferView":26,
			"componentType":5126,
			"count":5434,
			"type":"VEC2"
		},
		{
			"bufferView":27,
			"componentType":5123,
			"count":26400,
			"type":"SCALAR"
		},
		{
			"bufferView":28,
			"componentType":5126,
			"count":7406,
			"max":[
				-14.926145553588867,
				17.197250366210938,
				-4.898445129394531
			],
			"min":[
				-32.7037467956543,
				-0.08694934844970703,
				-30.925142288208008
			],
			"type":"VEC3"
		},
		{
			"bufferView":29,
			"componentType":5126,
			"count":7406,
			"type":"VEC3"
		},
		{
			"bufferView":30,
			"componentType":5126,
			"count":7406,
			"type":"VEC2"
		},
		{
			"bufferView":31,
			"componentType":5123,
			"count":38175,
			"type":"SCALAR"
		},
		{
			"bufferView":32,
			"componentType":5126,
			"count":166,
			"max":[
				2.2802915573120117,
				3.4602394104003906,
				-4.661001205444336
			],
			"min":[
				2.252330780029297,
				3.396242380142212,
				-4.666715145111084
			],
			"type":"VEC3"
		},
		{
			"bufferView":33,
			"componentType":5126,
			"count":166,
			"type":"VEC3"
		},
		{
			"bufferView":34,
			"componentType":5126,
			"count":166,
			"type":"VEC2"
		},
		{
			"bufferView":35,
			"componentType":5123,
			"count":480,
			"type":"SCALAR"
		},
		{
			"bufferView":36,
			"componentType":5126,
			"count":79,
			"max":[
				2.4386892318725586,
				3.4602394104003906,
				-4.661001205444336
			],
			"min":[
				2.374821424484253,
				3.3965024948120117,
				-4.666707992553711
			],
			"type":"VEC3"
		},
		{
			"bufferView":37,
			"componentType":5126,
			"count":79,
			"type":"VEC3"
		},
		{
			"bufferView":38,
			"componentType":5126,
			"count":79,
			"type":"VEC2"
		},
		{
			"bufferView":39,
			"componentType":5123,
			"count":132,
			"type":"SCALAR"
		},
		{
			"bufferView":40,
			"componentType":5126,
			"count":2781,
			"max":[
				3.5081329345703125,
				2.5697391033172607,
				-3.827322244644165
			],
			"min":[
				-1.61006498336792,
				0.8248522281646729,
				-3.965646266937256
			],
			"type":"VEC3"
		},
		{
			"bufferView":41,
			"componentType":5126,
			"count":2781,
			"type":"VEC3"
		},
		{
			"bufferView":42,
			"componentType":5126,
			"count":2781,
			"type":"VEC2"
		},
		{
			"bufferView":43,
			"componentType":5123,
			"count":16128,
			"type":"SCALAR"
		},
		{
			"bufferView":44,
			"componentType":5126,
			"count":80,
			"max":[
				2.6124775409698486,
				3.4630556106567383,
				-4.661773204803467
			],
			"min":[
				2.546412706375122,
				3.3950047492980957,
				-4.665734767913818
			],
			"type":"VEC3"
		},
		{
			"bufferView":45,
			"componentType":5126,
			"count":80,
			"type":"VEC3"
		},
		{
			"bufferView":46,
			"componentType":5126,
			"count":80,
			"type":"VEC2"
		},
		{
			"bufferView":47,
			"componentType":5123,
			"count":156,
			"type":"SCALAR"
		},
		{
			"bufferView":48,
			"componentType":5126,
			"count":5944,
			"max":[
				3.1692442893981934,
				2.4812722206115723,
				-3.869169235229492
			],
			"min":[
				-1.928953766822815,
				0.7555392980575562,
				-4.02012825012207
			],
			"type":"VEC3"
		},
		{
			"bufferView":49,
			"componentType":5126,
			"count":5944,
			"type":"VEC3"
		},
		{
			"bufferView":50,
			"componentType":5126,
			"count":5944,
			"type":"VEC2"
		},
		{
			"bufferView":51,
			"componentType":5123,
			"count":32220,
			"type":"SCALAR"
		},
		{
			"bufferView":52,
			"componentType":5126,
			"count":118137,
			"max":[
				3.0439085960388184,
				2.527726888656616,
				-4.012513637542725
			],
			"min":[
				-1.8449633121490479,
				1.1138279438018799,
				-4.138272285461426
			],
			"type":"VEC3"
		},
		{
			"bufferView":53,
			"componentType":5126,
			"count":118137,
			"type":"VEC3"
		},
		{
			"bufferView":54,
			"componentType":5126,
			"count":118137,
			"type":"VEC2"
		},
		{
			"bufferView":55,
			"componentType":5125,
			"count":707316,
			"type":"SCALAR"
		},
		{
			"bufferView":56,
			"componentType":5126,
			"count":2804,
			"max":[
				2.7790093421936035,
				3.4575493335723877,
				-4.661157131195068
			],
			"min":[
				2.6988353729248047,
				3.3971762657165527,
				-4.666308879852295
			],
			"type":"VEC3"
		},
		{
			"bufferView":57,
			"componentType":5126,
			"count":2804,
			"type":"VEC3"
		},
		{
			"bufferView":58,
			"componentType":5126,
			"count":2804,
			"type":"VEC2"
		},
		{
			"bufferView":59,
			"componentType":5123,
			"count":4284,
			"type":"SCALAR"
		},
		{
			"bufferView":60,
			"componentType":5126,
			"count":291,
			"max":[
				1.3991646766662598,
				1.6012624502182007,
				2.3003838062286377
			],
			"min":[
				-1.148569107055664,
				0.15663617849349976,
				-0.2707984447479248
			],
			"type":"VEC3"
		},
		{
			"bufferView":61,
			"componentType":5126,
			"count":291,
			"type":"VEC3"
		},
		{
			"bufferView":62,
			"componentType":5126,
			"count":291,
			"type":"VEC2"
		},
		{
			"bufferView":63,
			"componentType":5123,
			"count":1176,
			"type":"SCALAR"
		},
		{
			"bufferView":64,
			"componentType":5126,
			"count":44,
			"max":[
				1.7776188850402832,
				1.1358270645141602,
				2.1806724071502686
			],
			"min":[
				-0.48017823696136475,
				1.082103967666626,
				0.12451523542404175
			],
			"type":"VEC3"
		},
		{
			"bufferView":65,
			"componentType":5126,
			"count":44,
			"type":"VEC3"
		},
		{
			"bufferView":66,
			"componentType":5126,
			"count":44,
			"type":"VEC2"
		},
		{
			"bufferView":67,
			"componentType":5123,
			"count":84,
			"type":"SCALAR"
		},
		{
			"bufferView":68,
			"componentType":5126,
			"count":102,
			"max":[
				2.051018476486206,
				0.17550309002399445,
				1.059800624847412
			],
			"min":[
				-0.29141736030578613,
				0.13804593682289124,
				-1.225545883178711
			],
			"type":"VEC3"
		},
		{
			"bufferView":69,
			"componentType":5126,
			"count":102,
			"type":"VEC3"
		},
		{
			"bufferView":70,
			"componentType":5126,
			"count":102,
			"type":"VEC2"
		},
		{
			"bufferView":71,
			"componentType":5123,
			"count":252,
			"type":"SCALAR"
		},
		{
			"bufferView":72,
			"componentType":5126,
			"count":190,
			"max":[
				11.984918594360352,
				4.6293511390686035,
				0.10512900352478027
			],
			"min":[
				8.975044250488281,
				0.7957953214645386,
				-2.936706304550171
			],
			"type":"VEC3"
		},
		{
			"bufferView":73,
			"componentType":5126,
			"count":190,
			"type":"VEC3"
		},
		{
			"bufferView":74,
			"componentType":5126,
			"count":190,
			"type":"VEC2"
		},
		{
			"bufferView":75,
			"componentType":5123,
			"count":732,
			"type":"SCALAR"
		},
		{
			"bufferView":76,
			"componentType":5126,
			"count":12,
			"max":[
				1.41118323802948,
				1.350646734237671,
				1.1268295049667358
			],
			"min":[
				-0.955579400062561,
				1.2305200099945068,
				-1.9150058031082153
			],
			"type":"VEC3"
		},
		{
			"bufferView":77,
			"componentType":5126,
			"count":12,
			"type":"VEC3"
		},
		{
			"bufferView":78,
			"componentType":5126,
			"count":12,
			"type":"VEC2"
		},
		{
			"bufferView":79,
			"componentType":5123,
			"count":60,
			"type":"SCALAR"
		},
		{
			"bufferView":80,
			"componentType":5126,
			"count":48,
			"max":[
				1.2313088178634644,
				0.424502968788147,
				-1.504370927810669
			],
			"min":[
				-0.8339263200759888,
				0.4091137945652008,
				-3.836082935333252
			],
			"type":"VEC3"
		},
		{
			"bufferView":81,
			"componentType":5126,
			"count":48,
			"type":"VEC3"
		},
		{
			"bufferView":82,
			"componentType":5126,
			"count":48,
			"type":"VEC2"
		},
		{
			"bufferView":83,
			"componentType":5123,
			"count":168,
			"type":"SCALAR"
		},
		{
			"bufferView":84,
			"componentType":5126,
			"count":47,
			"max":[
				1.152306079864502,
				-0.7310125231742859,
				-1.205614686012268
			],
			"min":[
				-0.902167797088623,
				-0.7501397728919983,
				-3.365455389022827
			],
			"type":"VEC3"
		},
		{
			"bufferView":85,
			"componentType":5126,
			"count":47,
			"type":"VEC3"
		},
		{
			"bufferView":86,
			"componentType":5126,
			"count":47,
			"type":"VEC2"
		},
		{
			"bufferView":87,
			"componentType":5123,
			"count":168,
			"type":"SCALAR"
		},
		{
			"bufferView":88,
			"componentType":5126,
			"count":8,
			"max":[
				3.638866424560547,
				5.167724132537842,
				-4.190433502197266
			],
			"min":[
				1.6388664245605469,
				4.965243816375732,
				-6.190433502197266
			],
			"type":"VEC3"
		},
		{
			"bufferView":89,
			"componentType":5126,
			"count":8,
			"type":"VEC3"
		},
		{
			"bufferView":90,
			"componentType":5126,
			"count":8,
			"type":"VEC2"
		},
		{
			"bufferView":91,
			"componentType":5123,
			"count":36,
			"type":"SCALAR"
		},
		{
			"bufferView":92,
			"componentType":5126,
			"count":8,
			"max":[
				3.7298338413238525,
				4.300334453582764,
				-4.1454877853393555
			],
			"min":[
				1.7298338413238525,
				4.097854137420654,
				-6.1454877853393555
			],
			"type":"VEC3"
		},
		{
			"bufferView":93,
			"componentType":5126,
			"count":8,
			"type":"VEC3"
		},
		{
			"bufferView":94,
			"componentType":5126,
			"count":8,
			"type":"VEC2"
		},
		{
			"bufferView":95,
			"componentType":5126,
			"count":130,
			"max":[
				-34.57168960571289,
				-13.602762222290039,
				24.43832778930664
			],
			"min":[
				-36.57168960571289,
				-15.602762222290039,
				22.43832778930664
			],
			"type":"VEC3"
		},
		{
			"bufferView":96,
			"componentType":5126,
			"count":130,
			"type":"VEC3"
		},
		{
			"bufferView":97,
			"componentType":5126,
			"count":130,
			"type":"VEC2"
		},
		{
			"bufferView":98,
			"componentType":5123,
			"count":372,
			"type":"SCALAR"
		},
		{
			"bufferView":99,
			"componentType":5126,
			"count":192,
			"max":[
				-17.72776985168457,
				-13.424283981323242,
				25.277578353881836
			],
			"min":[
				-19.72776985168457,
				-15.424283981323242,
				23.277578353881836
			],
			"type":"VEC3"
		},
		{
			"bufferView":100,
			"componentType":5126,
			"count":192,
			"type":"VEC3"
		},
		{
			"bufferView":101,
			"componentType":5126,
			"count":192,
			"type":"VEC2"
		},
		{
			"bufferView":102,
			"componentType":5123,
			"count":372,
			"type":"SCALAR"
		},
		{
			"bufferView":103,
			"componentType":5126,
			"count":12,
			"max":[
				0.3291560411453247,
				-0.02555038407444954,
				6.368943214416504
			],
			"min":[
				-1.7205195426940918,
				-0.03279551491141319,
				4.326733112335205
			],
			"type":"VEC3"
		},
		{
			"bufferView":104,
			"componentType":5126,
			"count":12,
			"type":"VEC3"
		},
		{
			"bufferView":105,
			"componentType":5126,
			"count":12,
			"type":"VEC2"
		},
		{
			"bufferView":106,
			"componentType":5123,
			"count":54,
			"type":"SCALAR"
		},
		{
			"bufferView":107,
			"componentType":5126,
			"count":27,
			"max":[
				0.6097441911697388,
				5.776350975036621,
				-6.4759416580200195
			],
			"min":[
				-1.3902558088302612,
				3.776350975036621,
				-8.47594165802002
			],
			"type":"VEC3"
		},
		{
			"bufferView":108,
			"componentType":5126,
			"count":27,
			"type":"VEC3"
		},
		{
			"bufferView":109,
			"componentType":5126,
			"count":27,
			"type":"VEC2"
		},
		{
			"bufferView":110,
			"componentType":5123,
			"count":108,
			"type":"SCALAR"
		},
		{
			"bufferView":111,
			"componentType":5126,
			"count":130,
			"max":[
				5.411965847015381,
				-8.413999557495117,
				10.644094467163086
			],
			"min":[
				3.411965847015381,
				-10.413999557495117,
				8.644094467163086
			],
			"type":"VEC3"
		},
		{
			"bufferView":112,
			"componentType":5126,
			"count":130,
			"type":"VEC3"
		},
		{
			"bufferView":113,
			"componentType":5126,
			"count":130,
			"type":"VEC2"
		},
		{
			"bufferView":114,
			"componentType":5126,
			"count":160,
			"max":[
				0.42127716541290283,
				3.8566036224365234,
				-0.3468818664550781
			],
			"min":[
				-1.5787227153778076,
				3.724853992462158,
				-2.346881866455078
			],
			"type":"VEC3"
		},
		{
			"bufferView":115,
			"componentType":5126,
			"count":160,
			"type":"VEC3"
		},
		{
			"bufferView":116,
			"componentType":5126,
			"count":160,
			"type":"VEC2"
		},
		{
			"bufferView":117,
			"componentType":5123,
			"count":948,
			"type":"SCALAR"
		}
	],
	"bufferViews":[
		{
			"buffer":0,
			"byteLength":585108,
			"byteOffset":0,
			"target":34962
		},
		{
			"buffer":0,
			"byteLength":585108,
			"byteOffset":585108,
			"target":34962
		},
		{
			"buffer":0,
			"byteLength":390072,
			"byteOffset":1170216,
			"target":34962
		},
		{
			"buffer":0,
			"byteLength":492084,
			"byteOffset":1560288,
			"target":34963
		},
		{
			"buffer":0,
			"byteLength":141336,
			"byteOffset":2052372,
			"target":34962
		},
		{
			"buffer":0,
			"byteLength":141336,
			"byteOffset":2193708,
			"target":34962
		},
		{
			"buffer":0,
			"byteLength":94224,
			"byteOffset":2335044,
			"target":34962
		},
		{
			"buffer":0,
			"byteLength":87168,
			"byteOffset":2429268,
			"target":34963
		},
		{
			"buffer":0,
			"byteLength":59424,
			"byteOffset":2516436,
			"target":34962
		},
		{
			"buffer":0,
			"byteLength":59424,
			"byteOffset":2575860,
			"target":34962
		},
		{
			"buffer":0,
			"byteLength":39616,
			"byteOffset":2635284,
			"target":34962
		},
		{
			"buffer":0,
			"byteLength":43740,
			"byteOffset":2674900,
			"target":34963
		},
		{
			"buffer":0,
			"byteLength":7344,
			"byteOffset":2718640,
			"target":34962
		},
		{
			"buffer":0,
			"byteLength":7344,
			"byteOffset":2725984,
			"target":34962
		},
		{
			"buffer":0,
			"byteLength":4896,
			"byteOffset":2733328,
			"target":34962
		},
		{
			"buffer":0,
			"byteLength":7050,
			"byteOffset":2738224,
			"target":34963
		},
		{
			"buffer":0,
			"byteLength":207072,
			"byteOffset":2745276,
			"target":34962
		},
		{
			"buffer":0,
			"byteLength":207072,
			"byteOffset":2952348,
			"target":34962
		},
		{
			"buffer":0,
			"byteLength":138048,
			"byteOffset":3159420,
			"target":34962
		},
		{
			"buffer":0,
			"byteLength":201576,
			"byteOffset":3297468,
			"target":34963
		},
		{
			"buffer":0,
			"byteLength":30192,
			"byteOffset":3499044,
			"target":34962
		},
		{
			"buffer":0,
			"byteLength":30192,
			"byteOffset":3529236,
			"target":34962
		},
		{
			"buffer":0,
			"byteLength":20128,
			"byteOffset":3559428,
			"target":34962
		},
		{
			"buffer":0,
			"byteLength":21960,
			"byteOffset":3579556,
			"target":34963
		},
		{
			"buffer":0,
			"byteLength":65208,
			"byteOffset":3601516,
			"target":34962
		},
		{
			"buffer":0,
			"byteLength":65208,
			"byteOffset":3666724,
			"target":34962
		},
		{
			"buffer":0,
			"byteLength":43472,
			"byteOffset":3731932,
			"target":34962
		},
		{
			"buffer":0,
			"byteLength":52800,
			"byteOffset":3775404,
			"target":34963
		},
		{
			"buffer":0,
			"byteLength":88872,
			"byteOffset":3828204,
			"target":34962
		},
		{
			"buffer":0,
			"byteLength":88872,
			"byteOffset":3917076,
			"target":34962
		},
		{
			"buffer":0,
			"byteLength":59248,
			"byteOffset":4005948,
			"target":34962
		},
		{
			"buffer":0,
			"byteLength":76350,
			"byteOffset":4065196,
			"target":34963
		},
		{
			"buffer":0,
			"byteLength":1992,
			"byteOffset":4141548,
			"target":34962
		},
		{
			"buffer":0,
			"byteLength":1992,
			"byteOffset":4143540,
			"target":34962
		},
		{
			"buffer":0,
			"byteLength":1328,
			"byteOffset":4145532,
			"target":34962
		},
		{
			"buffer":0,
			"byteLength":960,
			"byteOffset":4146860,
			"target":34963
		},
		{
			"buffer":0,
			"byteLength":948,
			"byteOffset":4147820,
			"target":34962
		},
		{
			"buffer":0,
			"byteLength":948,
			"byteOffset":4148768,
			"target":34962
		},
		{
			"buffer":0,
			"byteLength":632,
			"byteOffset":4149716,
			"target":34962
		},
		{
			"buffer":0,
			"byteLength":264,
			"byteOffset":4150348,
			"target":34963
		},
		{
			"buffer":0,
			"byteLength":33372,
			"byteOffset":4150612,
			"target":34962
		},
		{
			"buffer":0,
			"byteLength":33372,
			"byteOffset":4183984,
			"target":34962
		},
		{
			"buffer":0,
			"byteLength":22248,
			"byteOffset":4217356,
			"target":34962
		},
		{
			"buffer":0,
			"byteLength":32256,
			"byteOffset":4239604,
			"target":34963
		},
		{
			"buffer":0,
			"byteLength":960,
			"byteOffset":4271860,
			"target":34962
		},
		{
			"buffer":0,
			"byteLength":960,
			"byteOffset":4272820,
			"target":34962
		},
		{
			"buffer":0,
			"byteLength":640,
			"byteOffset":4273780,
			"target":34962
		},
		{
			"buffer":0,
			"byteLength":312,
			"byteOffset":4274420,
			"target":34963
		},
		{
			"buffer":0,
			"byteLength":71328,
			"byteOffset":4274732,
			"target":34962
		},
		{
			"buffer":0,
			"byteLength":71328,
			"byteOffset":4346060,
			"target":34962
		},
		{
			"buffer":0,
			"byteLength":47552,
			"byteOffset":4417388,
			"target":34962
		},
		{
			"buffer":0,
			"byteLength":64440,
			"byteOffset":4464940,
			"target":34963
		},
		{
			"buffer":0,
			"byteLength":1417644,
			"byteOffset":4529380,
			"target":34962
		},
		{
			"buffer":0,
			"byteLength":1417644,
			"byteOffset":5947024,
			"target":34962
		},
		{
			"buffer":0,
			"byteLength":945096,
			"byteOffset":7364668,
			"target":34962
		},
		{
			"buffer":0,
			"byteLength":2829264,
			"byteOffset":8309764,
			"target":34963
		},
		{
			"buffer":0,
			"byteLength":33648,
			"byteOffset":11139028,
			"target":34962
		},
		{
			"buffer":0,
			"byteLength":33648,
			"byteOffset":11172676,
			"target":34962
		},
		{
			"buffer":0,
			"byteLength":22432,
			"byteOffset":11206324,
			"target":34962
		},
		{
			"buffer":0,
			"byteLength":8568,
			"byteOffset":11228756,
			"target":34963
		},
		{
			"buffer":0,
			"byteLength":3492,
			"byteOffset":11237324,
			"target":34962
		},
		{
			"buffer":0,
			"byteLength":3492,
			"byteOffset":11240816,
			"target":34962
		},
		{
			"buffer":0,
			"byteLength":2328,
			"byteOffset":11244308,
			"target":34962
		},
		{
			"buffer":0,
			"byteLength":2352,
			"byteOffset":11246636,
			"target":34963
		},
		{
			"buffer":0,
			"byteLength":528,
			"byteOffset":11248988,
			"target":34962
		},
		{
			"buffer":0,
			"byteLength":528,
			"byteOffset":11249516,
			"target":34962
		},
		{
			"buffer":0,
			"byteLength":352,
			"byteOffset":11250044,
			"target":34962
		},
		{
			"buffer":0,
			"byteLength":168,
			"byteOffset":11250396,
			"target":34963
		},
		{
			"buffer":0,
			"byteLength":1224,
			"byteOffset":11250564,
			"target":34962
		},
		{
			"buffer":0,
			"byteLength":1224,
			"byteOffset":11251788,
			"target":34962
		},
		{
			"buffer":0,
			"byteLength":816,
			"byteOffset":11253012,
			"target":34962
		},
		{
			"buffer":0,
			"byteLength":504,
			"byteOffset":11253828,
			"target":34963
		},
		{
			"buffer":0,
			"byteLength":2280,
			"byteOffset":11254332,
			"target":34962
		},
		{
			"buffer":0,
			"byteLength":2280,
			"byteOffset":11256612,
			"target":34962
		},
		{
			"buffer":0,
			"byteLength":1520,
			"byteOffset":11258892,
			"target":34962
		},
		{
			"buffer":0,
			"byteLength":1464,
			"byteOffset":11260412,
			"target":34963
		},
		{
			"buffer":0,
			"byteLength":144,
			"byteOffset":11261876,
			"target":34962
		},
		{
			"buffer":0,
			"byteLength":144,
			"byteOffset":11262020,
			"target":34962
		},
		{
			"buffer":0,
			"byteLength":96,
			"byteOffset":11262164,
			"target":34962
		},
		{
			"buffer":0,
			"byteLength":120,
			"byteOffset":11262260,
			"target":34963
		},
		{
			"buffer":0,
			"byteLength":576,
			"byteOffset":11262380,
			"target":34962
		},
		{
			"buffer":0,
			"byteLength":576,
			"byteOffset":11262956,
			"target":34962
		},
		{
			"buffer":0,
			"byteLength":384,
			"byteOffset":11263532,
			"target":34962
		},
		{
			"buffer":0,
			"byteLength":336,
			"byteOffset":11263916,
			"target":34963
		},
		{
			"buffer":0,
			"byteLength":564,
			"byteOffset":11264252,
			"target":34962
		},
		{
			"buffer":0,
			"byteLength":564,
			"byteOffset":11264816,
			"target":34962
		},
		{
			"buffer":0,
			"byteLength":376,
			"byteOffset":11265380,
			"target":34962
		},
		{
			"buffer":0,
			"byteLength":336,
			"byteOffset":11265756,
			"target":34963
		},
		{
			"buffer":0,
			"byteLength":96,
			"byteOffset":11266092,
			"target":34962
		},
		{
			"buffer":0,
			"byteLength":96,
			"byteOffset":11266188,
			"target":34962
		},
		{
			"buffer":0,
			"byteLength":64,
			"byteOffset":11266284,
			"target":34962
		},
		{
			"buffer":0,
			"byteLength":72,
			"byteOffset":11266348,
			"target":34963
		},
		{
			"buffer":0,
			"byteLength":96,
			"byteOffset":11266420,
			"target":34962
		},
		{
			"buffer":0,
			"byteLength":96,
			"byteOffset":11266516,
			"target":34962
		},
		{
			"buffer":0,
			"byteLength":64,
			"byteOffset":11266612,
			"target":34962
		},
		{
			"buffer":0,
			"byteLength":1560,
			"byteOffset":11266676,
			"target":34962
		},
		{
			"buffer":0,
			"byteLength":1560,
			"byteOffset":11268236,
			"target":34962
		},
		{
			"buffer":0,
			"byteLength":1040,
			"byteOffset":11269796,
			"target":34962
		},
		{
			"buffer":0,
			"byteLength":744,
			"byteOffset":11270836,
			"target":34963
		},
		{
			"buffer":0,
			"byteLength":2304,
			"byteOffset":11271580,
			"target":34962
		},
		{
			"buffer":0,
			"byteLength":2304,
			"byteOffset":11273884,
			"target":34962
		},
		{
			"buffer":0,
			"byteLength":1536,
			"byteOffset":11276188,
			"target":34962
		},
		{
			"buffer":0,
			"byteLength":744,
			"byteOffset":11277724,
			"target":34963
		},
		{
			"buffer":0,
			"byteLength":144,
			"byteOffset":11278468,
			"target":34962
		},
		{
			"buffer":0,
			"byteLength":144,
			"byteOffset":11278612,
			"target":34962
		},
		{
			"buffer":0,
			"byteLength":96,
			"byteOffset":11278756,
			"target":34962
		},
		{
			"buffer":0,
			"byteLength":108,
			"byteOffset":11278852,
			"target":34963
		},
		{
			"buffer":0,
			"byteLength":324,
			"byteOffset":11278960,
			"target":34962
		},
		{
			"buffer":0,
			"byteLength":324,
			"byteOffset":11279284,
			"target":34962
		},
		{
			"buffer":0,
			"byteLength":216,
			"byteOffset":11279608,
			"target":34962
		},
		{
			"buffer":0,
			"byteLength":216,
			"byteOffset":11279824,
			"target":34963
		},
		{
			"buffer":0,
			"byteLength":1560,
			"byteOffset":11280040,
			"target":34962
		},
		{
			"buffer":0,
			"byteLength":1560,
			"byteOffset":11281600,
			"target":34962
		},
		{
			"buffer":0,
			"byteLength":1040,
			"byteOffset":11283160,
			"target":34962
		},
		{
			"buffer":0,
			"byteLength":1920,
			"byteOffset":11284200,
			"target":34962
		},
		{
			"buffer":0,
			"byteLength":1920,
			"byteOffset":11286120,
			"target":34962
		},
		{
			"buffer":0,
			"byteLength":1280,
			"byteOffset":11288040,
			"target":34962
		},
		{
			"buffer":0,
			"byteLength":1896,
			"byteOffset":11289320,
			"target":34963
		}
	],
	"buffers":[
		{
			"byteLength":11291216,
			"uri":"Mini_setup.bin"
		}
	]
}
